<svg width="23" height="23" viewBox="0 0 23 23" xmlns="http://www.w3.org/2000/svg">
    <g fill="#FFF" fill-rule="nonzero">
        <path d="M19.75 3.25h-.917V1.417A.917.917 0 0 0 17.917.5H17a.917.917 0 0 0-.917.917V3.25H6.917V1.417A.917.917 0 0 0 6 .5h-.917a.917.917 0 0 0-.916.917V3.25H3.25A2.753 2.753 0 0 0 .5 6v13.75a2.753 2.753 0 0 0 2.75 2.75h16.5a2.753 2.753 0 0 0 2.75-2.75V6a2.753 2.753 0 0 0-2.75-2.75zm.917 16.5a.918.918 0 0 1-.917.917H3.25a.918.918 0 0 1-.917-.917V9.703h18.334V19.75z"/>
        <path d="M5.188 14.25h1.458a.438.438 0 0 0 .437-.438v-1.458a.438.438 0 0 0-.437-.437H5.188a.438.438 0 0 0-.438.437v1.459c0 .241.196.437.438.437zM5.188 18.75h1.458a.438.438 0 0 0 .437-.438v-1.458a.438.438 0 0 0-.437-.437H5.188a.438.438 0 0 0-.438.437v1.459c0 .241.196.437.438.437zM10.938 14.25h1.458a.438.438 0 0 0 .437-.438v-1.458a.438.438 0 0 0-.437-.437h-1.459a.438.438 0 0 0-.437.437v1.459c0 .241.196.437.438.437zM10.938 18.75h1.458a.438.438 0 0 0 .437-.438v-1.458a.438.438 0 0 0-.437-.437h-1.459a.438.438 0 0 0-.437.437v1.459c0 .241.196.437.438.437zM16.354 14.25h1.459a.438.438 0 0 0 .437-.438v-1.458a.438.438 0 0 0-.438-.437h-1.458a.438.438 0 0 0-.437.437v1.459c0 .241.196.437.437.437z"/>
    </g>
</svg>
