<svg xmlns="http://www.w3.org/2000/svg" width="18" height="18" viewBox="0 0 18 18">
    <g fill="none">
        <path fill="#CCC" d="M13.095 5.238c0 .361-.292.655-.655.655-.362 0-.654-.294-.654-.655H1.309v5.238c0 .361.294.655.655.655h3.274c.362 0 .655.293.655.655 0 .361-.293.654-.655.654H1.964C.881 12.44 0 11.56 0 10.476V3.11c0-.993.807-1.8 1.8-1.8l.819-.001V.655c0-.362.293-.655.655-.655.362 0 .655.293.655.655l-.001.654h5.238V.655c0-.362.293-.655.655-.655.362 0 .655.293.655.655v.654h.819c.943 0 1.72.73 1.794 1.654l.006.147v2.128z"/>
        <g>
            <path fill="#CCC" d="M7.737 1.661C5.995-.08 3.16-.08 1.417 1.661c-1.741 1.743-1.741 4.578 0 6.32 1.743 1.742 4.578 1.742 6.32 0s1.742-4.577 0-6.32z" transform="translate(7.454 6.91)"/>
            <path fill="#FFF" stroke="#FFF" stroke-width=".6" d="M5.776 4.873H4.44V3.536c0-.136-.11-.246-.246-.246s-.247.11-.247.246V5.12c0 .136.11.246.247.246h1.583c.136 0 .247-.11.247-.246s-.11-.247-.247-.247z" transform="translate(7.454 6.91)"/>
        </g>
    </g>
</svg>
