<svg width="117" height="90" viewBox="0 0 117 90" xmlns="http://www.w3.org/2000/svg">
    <defs>
        <linearGradient x1="49.995%" y1="100%" x2="49.995%" y2=".004%" id="u08o7uhf4a">
            <stop stop-color="gray" stop-opacity=".25" offset="0%"/>
            <stop stop-color="gray" stop-opacity=".12" offset="54%"/>
            <stop stop-color="gray" stop-opacity=".1" offset="100%"/>
        </linearGradient>
        <linearGradient x1="-.001%" y1="50.015%" x2="100.006%" y2="50.015%" id="gfgt1lj7ab">
            <stop stop-color="gray" stop-opacity=".25" offset="0%"/>
            <stop stop-color="gray" stop-opacity=".12" offset="54%"/>
            <stop stop-color="gray" stop-opacity=".1" offset="100%"/>
        </linearGradient>
    </defs>
    <g fill="none" fill-rule="evenodd">
        <path d="M23.684 48.76c-1.384.452-2.675 1.549-3.024 3.07-.396 1.746.516 3.512.646 5.303.425 5.88-7.3 10.029-6.198 15.807.438 2.293 2.207 3.984 3.952 5.375 2.792 2.229 5.89 4.197 9.317 4.753 5.207.844 10.648-1.639 15.71-.07 4.081 1.266 7.205 4.976 11.26 6.345 3.086 1.043 6.41.632 9.62.21 1.725-.226 3.539-.489 4.935-1.612 2.598-2.09 2.755-6.219 4.493-9.178 2.682-4.567 8.562-5.459 13.493-4.572 4.93.888 9.716 3.076 14.711 2.89 1.067-.037 2.162-.195 3.092-.762 1.132-.69 1.898-1.903 2.574-3.105 4.214-7.487 6.562-16.196 6.729-24.964.029-1.515-.02-3.095-.678-4.437-.83-1.692-2.49-2.703-4.151-3.385-3.975-1.628-8.365-1.892-12.26-3.74-3.758-1.782-6.802-4.907-10.073-7.58-6.488-5.31-14.115-8.986-22.096-10.654-1.88-.393-3.83-.674-5.697-.22-2.151.523-4.005 1.975-5.672 3.537-4.437 4.16-7.991 9.288-12.078 13.845a70.638 70.638 0 0 1-9.178 8.559c-1.515 1.18-3.12 2.581-4.806 3.454-1.541.798-2.99.597-4.62 1.13z" fill="#536DFE" fill-rule="nonzero" opacity=".1"/>
        <g transform="matrix(-1 0 0 1 95 0)" fill-rule="nonzero">
            <path d="M94.417 45.137c-2.372-.499-6.864-1.434-11.947-2.471-7.526-1.534-9.49 4.273-9.49 4.273 0 2.958-9.813 15.228-9.813 15.228l-2.927-6.592c.45.07.91.038 1.346-.091 1.676-.504 2.504-2.404 2.773-4.14.4-2.615.034-5.29-1.054-7.699-.5-1.1-1.146-2.134-1.548-3.272-1.691-4.778 1.24-10.308-.533-15.067-.733-1.963-2.193-3.556-3.202-5.39-2.265-4.127-2.168-9.288-4.637-13.295C51.069 2.864 46.504.636 42.13 1.133c-2.578.293-4.421 1.219-6.824.108-2.028-.934-4.463-1.98-6.552-.507-1.782 1.256-2.085 3.729-3.057 5.684-1.709 3.434-5.761 5.675-6.238 9.484-.117.94 0 1.913-.273 2.82-.778 2.562-4.169 3.318-5.558 5.605-1.36 2.238.014 5.622 2.544 6.268 1.079.275 2.239.108 3.316.4 1.01.27 1.991 1.22 1.816 2.213l-2.24.41-6.448.72-.998.062v.05l-.054.006.053.043v.356c-1.815.714-4.756 2.622-5.866 7.625a7.59 7.59 0 0 1-1.502 3.117C2.596 47.647-.147 51.648.006 55.49c.216 5.478.216 7.67 7.417 6.135 1.82-.387 3.798-1.18 5.74-2.15.114 2.283.408 4.522 1.023 6.203C16.15 71.046 12.004 90 12.004 90h40.033s-3.382-11.175-6.654-16.872c-2.317-4.035-1.46-6.476-.764-7.557a10.172 10.172 0 0 0 1.336-2.995c.119-.467.234-.998.333-1.585.737.606 1.523 1.15 2.412 1.475.824.3 1.761.383 2.595.151a377.623 377.623 0 0 0 5.65 6.787c7.855 9.202 10.036 3.505 10.036 3.505s7.963-15.228 9.059-19.83c1.095-4.601 3.49-4.382 3.49-4.382 6.565 1.669 12.384-.754 15.088-2.211a.724.724 0 0 0-.2-1.349zM13.418 47.89a10.42 10.42 0 0 0 1.402-2.06h.02a15.706 15.706 0 0 1-.766 2.242c-.612.119-.98.18-.98.18l.324-.362z" fill="url(#u08o7uhf4a)"/>
            <path d="M28.532 1.727c-1.766 1.24-2.067 3.68-3.029 5.616-1.694 3.393-5.712 5.609-6.185 9.372-.117.927 0 1.89-.27 2.784-.772 2.532-4.135 3.28-5.518 5.539-1.349 2.21.014 5.554 2.523 6.192 1.072.273 2.22.108 3.289.395 1.068.287 2.104 1.335 1.75 2.382-.263.78-1.19 1.223-1.359 2.028-.147.693.325 1.354.781 1.893.58.682 1.199 1.353 1.975 1.8 2.133 1.23 4.794.491 7.254.41 2.976-.088 5.894.84 8.272 2.632.68.516 1.321 1.113 1.743 1.856 1.375 2.423.075 5.464.367 8.234.33 3.148 2.68 5.675 5.053 7.767.947.836 1.947 1.66 3.137 2.092 1.19.431 2.612.408 3.613-.363 1.052-.81 1.417-2.244 1.424-3.572.006-1.329-.273-2.65-.206-3.977.033-.65.27-1.42.902-1.549.317-.064.639.065.927.21 2.019 1.016 3.955 3.004 6.119 2.36 1.663-.498 2.488-2.376 2.75-4.092a13.463 13.463 0 0 0-1.045-7.603c-.496-1.083-1.137-2.108-1.535-3.234-1.673-4.73 1.232-10.195-.525-14.894-.726-1.94-2.174-3.514-3.175-5.327-2.25-4.077-2.15-9.177-4.6-13.137-2.296-3.713-6.825-5.913-11.16-5.422-2.558.289-4.385 1.205-6.768.108-2.012-.921-4.427-1.96-6.504-.5z" fill="#40243E"/>
            <path d="M45.793 36.143s6.982-2.172 9.775 10.422l7.09 16.068s9.667-12.16 9.667-15.09c0 0 1.933-5.755 9.345-4.235 5.007 1.027 9.425 1.954 11.765 2.448a.719.719 0 0 1 .192 1.332c-2.661 1.444-8.392 3.845-14.857 2.191 0 0-2.363-.217-3.438 4.343-1.074 4.56-8.915 19.65-8.915 19.65s-2.148 5.646-9.882-3.474C48.8 60.678 43 52.862 43 52.862l2.793-16.72z" fill="#FFBCC8"/>
            <path d="M85.2 25c5.386 0 9.8 4.504 9.8 10s-4.414 10-9.8 10c-5.385 0-9.799-4.504-9.799-10s4.414-10 9.8-10z" fill="#FDBF00"/>
            <path d="M75.401 35c0 5.496 4.414 10 9.8 10V25c-5.386 0-9.8 4.504-9.8 10z" fill="#FF9100"/>
            <path d="M85.2 27.383c4.112 0 7.465 3.422 7.465 7.617s-3.353 7.617-7.464 7.617c-4.112 0-7.465-3.422-7.465-7.617s3.353-7.617 7.465-7.617z" fill="#FFDA2D"/>
            <path d="M77.736 35c0 4.195 3.353 7.617 7.465 7.617V27.383c-4.112 0-7.465 3.422-7.465 7.617z" fill="#FDBF00"/>
            <text fill="#F78C00" font-family="Montserrat-Bold, Montserrat" font-size="11" font-weight="bold" transform="matrix(-1 0 0 1 95 25)">
                            <tspan x="6.35" y="13.9">$</tspan>
                        </text>
            <path d="m46 37.48-.916 3.022-.905 2.99-1.79 5.911L33.89 51l-2.77-1.77-3.391-2.17-2.924-2.022-4.3-2.981L17 34.711s.967-.171 3.98-.72l4.2-.77c2.9-.533 3.996-2.696 4.33-4.898.4-2.636-.294-5.323-.294-5.323h10.73s1.2 1.81 1.011 4.936c-.059.925-.22 1.84-.48 2.73-.944 3.272 1.186 4.364 2.63 4.719.391.1.79.159 1.193.178l1.7 1.916z" fill="#FFBCC8"/>
            <path d="M39.979 27.992a10.354 10.354 0 0 1-11.679.394C28.71 25.72 28 23 28 23h10.946s1.228 1.824 1.033 4.992z" fill="#000" opacity=".1"/>
            <circle fill="#FFBCC8" cx="35" cy="19" r="10"/>
            <path d="m46 37.692-.916 3.198-.905 3.164-1.79 6.256L33.89 52l-2.77-1.874-3.391-2.294-2.924-2.141-4.3-3.155L17 34.763s.967-.182 3.98-.763c2.125 6.27 4.812 8.604 7.238 9.361 1.45.45 2.805.338 3.885.17a9.472 9.472 0 0 1 4.168.224c3.26.963 4.977-.88 5.88-3.217.666-1.73.887-3.732.955-5.07.391.105.79.168 1.193.188L46 37.692z" fill="#000" opacity=".1"/>
            <path d="M11.433 89.999s4.098-18.794 2.157-24.117c-.555-1.52-.847-3.511-.977-5.57-.323-5.136.33-10.725.33-10.725a18.158 18.158 0 0 0 .833-1.903c2.31-6.264-.564-10.435-2.021-12.03a7.284 7.284 0 0 0-.755-.73L19.248 34c2.168 6.27 4.95 8.582 7.45 9.323 1.472.435 2.848.326 3.945.163 1.409-.227 2.85-.153 4.23.217 3.31.928 5.052-.848 5.967-3.102 1.137-2.799.996-6.333.996-6.333l4.744 1.413s-.418 2.618-.796 6.058c-.09.807-.177 1.659-.256 2.533-.323 3.648-.515 7.682-.134 10.42.388 2.705.25 5.46-.406 8.112a10.098 10.098 0 0 1-1.32 2.97c-.689 1.072-1.535 3.493.755 7.496C47.658 78.92 51 90 51 90l-39.567-.001z" fill="#FF6878"/>
            <path d="M46.605 36s3.825 5.996-1.194 11.15c-5.018 5.156-3.017-2.103-3.017-2.103l1.263-8.416L46.605 36z" fill="#FF6878"/>
            <path d="M12 35.198c.315-.091.637-.158.964-.198 1.508.66 2.343 2.494 2.797 4.408.611 2.624.04 5.363-1.586 7.592 2.486-6.148-.607-10.238-2.175-11.802zM45.457 44.656c-2.264.146-5.22-.113-5.22-.113.398 1.787-.425 3.184-1.273 4.094a2.924 2.924 0 0 1-2.615.897c-4.891-.832-12.33 3.533-12.33 3.533S18.7 57.278 13.09 60c-.319-4.912.324-10.259.324-10.259.091-.173.177-.346.26-.52 2.266-.415 10.502-2.057 12.144-4.468.244-.358.636-.694 1.124-1.005 1.403-.89 3.647-1.587 5.781-2.096a23.544 23.544 0 0 1 8.125-.505c1.166.13 2.32.351 3.452.66.494.133.97.278 1.409.429 1.2.415 2.11.88 2.268 1.374.213.665-.997.948-2.52 1.046z" fill="#000" opacity=".1"/>
            <path d="M44.108 43.978c-1.696-.03-3.182-.164-3.182-.164.415 1.921-.44 3.423-1.323 4.402a2.983 2.983 0 0 1-2.718.964c-1.917-.335-4.212.122-6.325.82l-3.525-2.276L24 45.601c.882-.479 1.564-1.005 1.933-1.564.979-1.488 4.19-2.595 7.18-3.335a23.517 23.517 0 0 1 11.935.139l.103.027c1.917.542 3.6 1.214 3.824 1.94.322 1.045-2.481 1.212-4.867 1.17z" fill="#000" opacity=".1"/>
            <path d="M12.858 35s-5.589.569-7.218 7.82a7.514 7.514 0 0 1-1.485 3.08c-1.62 2.002-4.299 5.902-4.149 9.646.214 5.346.214 7.485 7.266 5.988 7.051-1.497 16.56-9.196 16.56-9.196s7.497-4.484 12.427-3.636c.978.16 1.97-.187 2.635-.923.854-.936 1.689-2.374 1.282-4.213 0 0 8.334.749 7.8-.962-.214-.695-1.848-1.338-3.706-1.855a23.085 23.085 0 0 0-11.666-.16c-2.905.708-6.01 1.768-6.96 3.191-1.923 2.887-12.82 4.705-12.82 4.705l.32-.36a9.996 9.996 0 0 0 2.29-8.7c-.416-1.922-1.182-3.762-2.576-4.425z" fill="#FFBCC8"/>
            <path d="M11.004 35.206s-.323 12.46 4.523 10.606c4.845-1.854 1.077-10.606 1.077-10.606L14.45 35l-3.446.206z" fill="#FF6878"/>
            <path d="M25.956 18.944a49.36 49.36 0 0 0 9.493-1.98c.794-.249 1.656-.58 2.027-1.303.095-.187.167-.408.355-.51.16-.088.358-.06.537-.02 1.06.243 1.97.887 2.98 1.283 1.01.395 2.296.488 3.072-.254.916-.878.613-2.386.01-3.488-2.24-4.1-7.49-5.972-12.264-5.633-.67.048-1.352.135-1.957.422-1.278.596-1.978 1.922-2.67 3.123-1.347 2.33-8.469 9.1-1.583 8.36z" fill="#000" opacity=".1"/>
            <path d="M25.956 18.944a49.36 49.36 0 0 0 9.493-1.98c.794-.249 1.656-.58 2.027-1.303.095-.187.167-.408.355-.51.16-.088.358-.06.537-.02 1.06.243 1.97.887 2.98 1.283 1.01.395 2.296.488 3.072-.254.916-.878.613-2.386.01-3.488-2.24-4.1-7.49-5.972-12.264-5.633-.67.048-1.352.135-1.957.422-1.278.596-1.978 1.922-2.67 3.123-1.347 2.33-8.469 9.1-1.583 8.36z" fill="#40243E"/>
            <path d="M13 49s-2.62 1.09-3.055 2.424C9.51 52.757 9 53 9 53M63 62s-2.25 3.543 0 4M14 66.483S22.316 68.828 28.5 64h2.665S39.162 69.242 43 67.724" fill="#000" opacity=".05"/>
        </g>
        <path d="M23.007 27.243h-10.27l.142-1.155c2.903-2.606 4.78-9.548 4.78-9.548a.962.962 0 0 0-.124.026c-1.702.343-2.914 1.043-3.76 1.884l.36-3.073c5.361-1.154 7.488-8.247 7.488-8.247-3.422.76-5.555 1.934-6.88 3.049l.528-4.514C18.896 6.91 22.647.301 22.647.301l-.142-.03.07-.045-.107.038C18.461-.6 16.32 1.69 15.624 2.643l.053-.443c-.106.284-.21.562-.31.834v.011a48.89 48.89 0 0 0-.778 2.278 61.15 61.15 0 0 0-.576 1.901v-.008s-.166-4.037-4.423-5.1c0 0 .447 8.805 3.82 7.363a66.797 66.797 0 0 0-.789 3.698c-.14.777-.264 1.533-.369 2.27l-.02.023.02-.018-.008.059c-.095.668-.175 1.32-.241 1.954.065-1.222-.158-4.754-4.32-8.074 0 0-5.531 9.722 3.901 11.632l.063.054-.014-.044.085.018.038-.5a52.396 52.396 0 0 0 .033 6.256l.03.419H1.43c-3.963 8.197 2.202 12.689 2.202 12.689h17.02c6.61-8.332 2.354-12.672 2.354-12.672z" opacity=".7" fill="url(#gfgt1lj7ab)" fill-rule="nonzero" transform="translate(92 50)"/>
        <path d="M104.159 80.355s-2.695-11.773 3.262-26.95" stroke="#333" stroke-width=".5"/>
        <path d="M93.662 76.809h20.851s4.114 5.248-2.269 13.05H95.79s-5.957-5.39-2.128-13.05z" fill="#25407B" fill-rule="nonzero"/>
        <path d="M107.122 54.184s2.072-3.688 7.037-2.553c0 0-4.104 6.987-7.802 4.7l.765-2.147zM105.809 58.098s-.16-3.772-4.274-4.765c0 0 .425 8.227 3.688 6.88l.586-2.115zM104.464 63.668s.759-3.952 8.702-5.654c0 0-2.533 8.173-9.068 7.846l.366-2.192z" fill="#4DB6AC" fill-rule="nonzero"/>
        <path d="M103.82 68.104s.835-4.132-4.13-7.962c0 0-5.39 9.173 3.899 10.898l.23-2.936z" fill="#4DB6AC" fill-rule="nonzero"/>
        <path d="M103.67 73.783s-.575-5.84 5.666-6.974c0 0-2.28 8.154-5.674 9.608l.009-2.634z" fill="#4DB6AC" fill-rule="nonzero"/>
        <path d="M106.428 56.383s5.39-4.113 7.66-4.823M104.088 65.816s6.525-6.95 9.078-7.802M101.535 53.333s3.971 5.39 3.688 6.809M99.69 60.142s2.128 9.645 3.83 10.922M103.662 76.454s3.405-9.362 5.674-9.645" stroke="#333" stroke-width=".2"/>
        <path d="M114.513 76.809h-20.85c-.047.095-.093.19-.142.283h20.283s4.013 5.122-2.042 12.766h.482c6.383-7.801 2.27-13.05 2.27-13.05z" opacity=".1" fill="#000" fill-rule="nonzero"/>
    </g>
</svg>
