<svg width="24" height="23" viewBox="0 0 24 23" xmlns="http://www.w3.org/2000/svg">
    <g fill="#F4C92E" fill-rule="nonzero">
        <path d="M7.5 8C9.43 8 11 6.206 11 4S9.43 0 7.5 0 4 1.794 4 4s1.57 4 3.5 4zM23.983 16.794a.32.32 0 0 0-.269-.232l-2.222-.285a1.594 1.594 0 0 1-1.253-.954l-.945-2.127A.313.313 0 0 0 19 13a.313.313 0 0 0-.294.196l-.945 2.127a1.594 1.594 0 0 1-1.253.954l-2.222.285a.32.32 0 0 0-.27.232c-.018.062-.048.22.088.354l1.638 1.599c.406.396.585.973.479 1.543l-.429 2.303a.337.337 0 0 0 .128.34c.05.038.185.117.348.022l1.958-1.139c.242-.14.508-.211.774-.211s.532.07.774.211l1.958 1.139a.303.303 0 0 0 .348-.022.337.337 0 0 0 .127-.34l-.428-2.303a1.711 1.711 0 0 1 .478-1.543l1.639-1.6a.342.342 0 0 0 .087-.353zM12.215 16.263c.19-.608.687-1.034 1.296-1.111L14 15.09V12.47c0-1.423-.879-2.684-2.178-3.127l-.006-.002-1.9-.327a.316.316 0 0 0-.393.203l-2.157 6.156a.384.384 0 0 1-.731 0L4.479 9.218a.32.32 0 0 0-.3-.218c-.03 0-1.994.342-1.994.342C.875 9.796 0 11.059 0 12.488v5.122C0 18.378.598 19 1.336 19h11.328c.292 0 .561-.097.78-.263l-.808-.783a1.654 1.654 0 0 1-.42-1.691z"/>
        <path d="M7.874 9.148A.499.499 0 0 0 7.51 9H6.49a.498.498 0 0 0-.364.148.453.453 0 0 0-.063.544l.545.802-.255 2.102.503 1.306c.049.13.24.13.288 0l.503-1.306-.255-2.102.545-.802a.453.453 0 0 0-.063-.544z"/>
    </g>
</svg>
