<svg xmlns="http://www.w3.org/2000/svg" width="23" height="21" viewBox="0 0 23 21">
    <path fill="#1F6BD9" d="M18.929 16.679v3.535c0 .434-.448.786-1 .786-.553 0-1-.352-1-.786V16.68h2zM3.929.57v.786H1.57c-.433 0-.785.352-.785.786v15.321c0 .434.352.786.785.786h13.572v.786H.393c-.217 0-.393-.176-.393-.393V.964C0 .747.176.571.393.571h3.536zm0 1.572v.786c0 .433.351.785.785.785H12c.434 0 .786-.352.786-.785v-.786h2.357v2.589c-2.403.715-4.018 2.965-3.925 5.471.092 2.505 1.868 4.63 4.318 5.167v.523c-.217 0-.393.176-.393.393v1.178H1.57V2.143H3.93zM18.107 15.48v.413h-.786v-.413c.13.01.26.02.393.02s.263-.01.393-.02zm-.393-10.194c2.603.003 4.712 2.112 4.715 4.714 0 2.604-2.111 4.714-4.715 4.714C15.111 14.714 13 12.604 13 10c0-2.604 2.11-4.714 4.714-4.714zm0 .785c-2.17 0-3.928 1.76-3.928 3.929 0 2.17 1.759 3.929 3.928 3.929v-.786c-1.736 0-3.143-1.407-3.143-3.143 0-1.736 1.407-3.143 3.143-3.143zm-9.548-1.04l-.556.648H4.536c-.217 0-.393.175-.393.392v3.143c0 .217.176.393.393.393h3.143c.217 0 .392-.176.392-.393V6.347l.691-.806-.596-.51zm-1.23 1.433l-.851.994-.486-.486-.555.556.785.785c.074.074.174.116.278.116h.015c.11-.005.212-.055.283-.138l.88-1.027v1.557H4.93V6.464h2.008zM16.322.571c.217 0 .393.176.393.393V4.5c-.263.002-.525.023-.785.063v-2.42c0-.434-.352-.786-.786-.786h-2.357V.571zM10.486 0c.552 0 1 .448 1 1v.929c0 .552-.448 1-1 1H6.2c-.552 0-1-.448-1-1V1c0-.552.448-1 1-1h4.286z"/>
</svg>
