<svg width="402" height="311" viewBox="0 0 402 311" xmlns="http://www.w3.org/2000/svg">
    <defs>
        <linearGradient x1="49.985%" y1="99.989%" x2="49.985%" y2=".006%" id="fmzi36ipoa">
            <stop stop-color="gray" stop-opacity=".25" offset="0%"/>
            <stop stop-color="gray" stop-opacity=".12" offset="54%"/>
            <stop stop-color="gray" stop-opacity=".1" offset="100%"/>
        </linearGradient>
    </defs>
    <g fill-rule="nonzero" fill="none">
        <path d="M87.175.242C74.25-.234 60.745-.568 49.058 4.97 37.37 10.51 28.333 23.93 32.253 36.268c1.279 4.023 3.77 7.528 5.872 11.19 10.505 18.313 10.992 41.982 1.253 60.715-7.497 14.42-20.204 25.394-29.352 38.83-9.149 13.435-14.347 32.056-5.348 45.591 6.162 9.268 17.597 13.777 28.675 14.87 11.079 1.093 22.22-.628 33.347-1.07a143.679 143.679 0 0 1 63.062 11.922c27.33 11.978 50.873 32.469 79.649 40.376 3.455.948 7.065 1.714 10.598 1.07 6.266-1.14 10.822-6.32 15.727-10.409 15.66-12.963 37.34-15.383 57.667-15.985 20.327-.602 41.497-.137 59.872-8.863 16.043-7.617 28.393-21.788 36.072-37.796 7.68-16.007 11.015-33.796 12.272-51.51.744-10.543.718-21.428-3.057-31.298-4.243-11.096-12.848-19.933-21.874-27.658-9.43-8.074-19.71-15.39-31.353-19.748-13.908-5.204-29.006-5.948-43.814-7.182a602.066 602.066 0 0 1-90.128-14.468c-28.125-6.722-59.006-14.064-84.62-27.755C113.916.216 101.666.762 87.174.242z" fill="#536DFE" opacity=".1"/>
        <g opacity=".1" fill="#536DFE">
            <path d="M265.103 233.877s1.332-18.533 11.837-28.638a28.078 28.078 0 0 0 8.375-15.745c.452-2.857.64-5.75.564-8.64"/>
            <path d="M292.46 174.447c-.772 2.047-6.735 6.597-6.735 6.597s-1.505-7.318-.726-9.366c.77-2.045 3.064-3.084 5.124-2.32 2.06.765 3.106 3.043 2.337 5.089zM294.363 188.07c-1.768 1.3-9.263 1.902-9.263 1.902s2.747-6.952 4.515-8.256a4.003 4.003 0 0 1 5.487.881 3.937 3.937 0 0 1-.739 5.47v.003zM286.805 207.335c-2.19.24-8.966-2.988-8.966-2.988s5.907-4.625 8.093-4.857c2.11-.115 3.942 1.427 4.175 3.513.232 2.085-1.218 3.987-3.302 4.332zM277.779 220.634c-2.115.601-9.346-1.453-9.346-1.453s5.034-5.548 7.149-6.15a4.005 4.005 0 0 1 3.947.899 3.938 3.938 0 0 1 1.117 3.864 3.97 3.97 0 0 1-2.867 2.84zM277.117 187.461c.94 1.973 7.269 6.004 7.269 6.004s.872-7.416-.072-9.392c-.98-1.907-3.308-2.695-5.257-1.777a3.944 3.944 0 0 0-1.94 5.165zM266.759 203.147c1.505 1.603 8.747 3.572 8.747 3.572s-1.403-7.337-2.897-8.943a4.004 4.004 0 0 0-5.62-.209 3.936 3.936 0 0 0-.23 5.58zM258.801 219.764c1.197 1.83 8.014 4.987 8.014 4.987s-.135-7.472-1.335-9.298a4.002 4.002 0 0 0-5.45-1.068 3.94 3.94 0 0 0-1.229 5.379z"/>
            <path d="M292.46 174.447c-.772 2.047-6.735 6.597-6.735 6.597s-1.505-7.318-.726-9.366c.77-2.045 3.064-3.084 5.124-2.32 2.06.765 3.106 3.043 2.337 5.089zM294.363 188.07c-1.768 1.3-9.263 1.902-9.263 1.902s2.747-6.952 4.515-8.256a4.003 4.003 0 0 1 5.487.881 3.937 3.937 0 0 1-.739 5.47v.003zM286.805 207.335c-2.19.24-8.966-2.988-8.966-2.988s5.907-4.625 8.093-4.857c2.11-.115 3.942 1.427 4.175 3.513.232 2.085-1.218 3.987-3.302 4.332zM277.779 220.634c-2.115.601-9.346-1.453-9.346-1.453s5.034-5.548 7.149-6.15a4.005 4.005 0 0 1 3.947.899 3.938 3.938 0 0 1 1.117 3.864 3.97 3.97 0 0 1-2.867 2.84zM277.117 187.461c.94 1.973 7.269 6.004 7.269 6.004s.872-7.416-.072-9.392c-.98-1.907-3.308-2.695-5.257-1.777a3.944 3.944 0 0 0-1.94 5.165zM266.759 203.147c1.505 1.603 8.747 3.572 8.747 3.572s-1.403-7.337-2.897-8.943a4.004 4.004 0 0 0-5.62-.209 3.936 3.936 0 0 0-.23 5.58zM258.801 219.764c1.197 1.83 8.014 4.987 8.014 4.987s-.135-7.472-1.335-9.298a4.002 4.002 0 0 0-5.45-1.068 3.94 3.94 0 0 0-1.229 5.379z"/>
        </g>
        <g opacity=".1" fill="#536DFE">
            <path d="M269.028 163.959s1.332-18.533 11.837-28.637a28.104 28.104 0 0 0 8.375-15.746c.455-2.857.644-5.75.564-8.64"/>
            <path d="M296.384 104.529c-.752 2.043-6.73 6.593-6.73 6.593s-1.505-7.318-.73-9.361c.77-2.046 3.064-3.085 5.124-2.32 2.06.764 3.106 3.042 2.336 5.088zM298.3 118.149c-1.765 1.304-9.264 1.901-9.264 1.901s2.747-6.948 4.515-8.252a4.008 4.008 0 0 1 4.01-.533 3.96 3.96 0 0 1 2.413 3.226 3.945 3.945 0 0 1-1.675 3.658zM290.73 137.417c-2.186.24-8.962-2.988-8.962-2.988s5.906-4.621 8.092-4.857a3.997 3.997 0 0 1 3.706 1.565 3.933 3.933 0 0 1 .44 3.974 3.983 3.983 0 0 1-3.276 2.325v-.019zM281.704 150.716c-2.115.602-9.346-1.453-9.346-1.453s5.038-5.547 7.148-6.153c2.104-.569 4.278.647 4.878 2.728.6 2.082-.596 4.255-2.684 4.878h.004zM281.041 117.54c.941 1.976 7.273 6.007 7.273 6.007s.87-7.42-.071-9.392a3.983 3.983 0 0 0-3.284-2.317 3.995 3.995 0 0 0-3.642 1.711 3.932 3.932 0 0 0-.276 3.99zM270.684 133.226c1.505 1.606 8.75 3.571 8.75 3.571s-1.406-7.337-2.9-8.94a4.005 4.005 0 0 0-5.56-.146 3.936 3.936 0 0 0-.29 5.515zM262.726 149.846c1.2 1.83 8.014 4.987 8.014 4.987s-.135-7.472-1.336-9.298a3.992 3.992 0 0 0-3.573-1.89 3.986 3.986 0 0 0-3.395 2.19 3.932 3.932 0 0 0 .29 4.01z"/>
            <path d="M296.384 104.529c-.752 2.043-6.73 6.593-6.73 6.593s-1.505-7.318-.73-9.361c.77-2.046 3.064-3.085 5.124-2.32 2.06.764 3.106 3.042 2.336 5.088zM298.3 118.149c-1.765 1.304-9.264 1.901-9.264 1.901s2.747-6.948 4.515-8.252a4.008 4.008 0 0 1 4.01-.533 3.96 3.96 0 0 1 2.413 3.226 3.945 3.945 0 0 1-1.675 3.658zM290.73 137.417c-2.186.24-8.962-2.988-8.962-2.988s5.906-4.621 8.092-4.857a3.997 3.997 0 0 1 3.706 1.565 3.933 3.933 0 0 1 .44 3.974 3.983 3.983 0 0 1-3.276 2.325v-.019zM281.704 150.716c-2.115.602-9.346-1.453-9.346-1.453s5.038-5.547 7.148-6.153c2.104-.569 4.278.647 4.878 2.728.6 2.082-.596 4.255-2.684 4.878h.004zM281.041 117.54c.941 1.976 7.273 6.007 7.273 6.007s.87-7.42-.071-9.392a3.983 3.983 0 0 0-3.284-2.317 3.995 3.995 0 0 0-3.642 1.711 3.932 3.932 0 0 0-.276 3.99zM270.684 133.226c1.505 1.606 8.75 3.571 8.75 3.571s-1.406-7.337-2.9-8.94a4.005 4.005 0 0 0-5.56-.146 3.936 3.936 0 0 0-.29 5.515zM262.726 149.846c1.2 1.83 8.014 4.987 8.014 4.987s-.135-7.472-1.336-9.298a3.992 3.992 0 0 0-3.573-1.89 3.986 3.986 0 0 0-3.395 2.19 3.932 3.932 0 0 0 .29 4.01z"/>
        </g>
        <g opacity=".1" fill="#536DFE">
            <path d="M71.699 187.96s-15.892-9.457-20.22-23.23a27.955 27.955 0 0 0-10.285-14.423 46.937 46.937 0 0 0-7.441-4.36"/>
            <path d="M30.98 137.27c1.489 1.594 2.877 8.889 2.877 8.889s-7.178-1.95-8.655-3.544a3.928 3.928 0 0 1 .285-5.478 3.946 3.946 0 0 1 5.493.133zM43.948 141.701c.372 2.14-2.426 9.019-2.426 9.019s-4.964-5.53-5.336-7.67a3.93 3.93 0 0 1 1.313-3.768 3.946 3.946 0 0 1 3.938-.684c1.34.502 2.3 1.69 2.51 3.103zM57.73 156.96c-.744 2.035-6.657 6.563-6.657 6.563s-1.488-7.276-.725-9.308a3.944 3.944 0 0 1 6.79-1.208 3.928 3.928 0 0 1 .592 3.953zM65.548 170.862c-.402 2.136-5.448 7.61-5.448 7.61s-2.697-6.919-2.292-9.05a3.933 3.933 0 0 1 2.568-2.981 3.944 3.944 0 0 1 3.87.73 3.927 3.927 0 0 1 1.302 3.71v-.019zM35.74 156.618c2.173.052 8.576-3.714 8.576-3.714s-6.214-4.086-8.39-4.138a3.937 3.937 0 0 0-3.955 3.84 3.936 3.936 0 0 0 3.769 4.023v-.011zM45.09 172.764c2.091-.602 7.07-6.121 7.07-6.121s-7.152-2.04-9.243-1.438a3.932 3.932 0 0 0-2.61 4.84 3.941 3.941 0 0 0 4.787 2.719h-.004zM56.335 187.209c2.165-.238 8.004-4.829 8.004-4.829s-6.698-3.216-8.867-2.971a3.937 3.937 0 0 0-3.36 2.278 3.924 3.924 0 0 0 .446 4.03 3.94 3.94 0 0 0 3.777 1.492z"/>
            <path d="M30.98 137.27c1.489 1.594 2.877 8.889 2.877 8.889s-7.178-1.95-8.655-3.544a3.928 3.928 0 0 1 .285-5.478 3.946 3.946 0 0 1 5.493.133zM43.948 141.701c.372 2.14-2.426 9.019-2.426 9.019s-4.964-5.53-5.336-7.67a3.93 3.93 0 0 1 1.313-3.768 3.946 3.946 0 0 1 3.938-.684c1.34.502 2.3 1.69 2.51 3.103zM57.73 156.96c-.744 2.035-6.657 6.563-6.657 6.563s-1.488-7.276-.725-9.308a3.944 3.944 0 0 1 6.79-1.208 3.928 3.928 0 0 1 .592 3.953zM65.548 170.862c-.402 2.136-5.448 7.61-5.448 7.61s-2.697-6.919-2.292-9.05a3.933 3.933 0 0 1 2.568-2.981 3.944 3.944 0 0 1 3.87.73 3.927 3.927 0 0 1 1.302 3.71v-.019zM35.74 156.618c2.173.052 8.576-3.714 8.576-3.714s-6.214-4.086-8.39-4.138a3.937 3.937 0 0 0-3.955 3.84 3.936 3.936 0 0 0 3.769 4.023v-.011zM45.09 172.764c2.091-.602 7.07-6.121 7.07-6.121s-7.152-2.04-9.243-1.438a3.932 3.932 0 0 0-2.61 4.84 3.941 3.941 0 0 0 4.787 2.719h-.004zM56.335 187.209c2.165-.238 8.004-4.829 8.004-4.829s-6.698-3.216-8.867-2.971a3.937 3.937 0 0 0-3.36 2.278 3.924 3.924 0 0 0 .446 4.03 3.94 3.94 0 0 0 3.777 1.492z"/>
        </g>
        <path d="M267 299.496c10.646 4.73 23.636 1.852 35.718 2.185 1.65.046 3.404.186 4.728 1.004 1.324.818 1.98 2.14 2.889 3.275 3.385 4.218 10.323 5.574 16.386 4.858 6.063-.715 11.622-3.086 17.344-4.888 9.89-3.12 21.192-4.544 30.949-1.136.893.31 1.854.67 2.796.545 2.14-.276 2.777-2.54 4.272-3.832 2.7-2.336 8.566-1.7 9.752-4.779.694-1.802-.905-3.65-2.647-4.88-6.675-4.711-16.205-5.487-24.93-4.76-8.726.727-17.304 2.73-26.074 2.737-10.928 0-21.485-3.074-32.306-4.335-7.494-.871-15.675-.757-22.702 1.806-7.616 2.772-9.293 9.016-16.175 12.2zM65 285.165c18.225 5.274 40.466 2.063 61.145 2.437 2.83.052 5.829.206 8.101 1.121 2.273.916 3.388 2.392 4.947 3.655 5.794 4.705 17.67 6.219 28.047 5.419 10.377-.8 19.898-3.442 29.695-5.452 16.93-3.48 36.286-5.064 52.985-1.271 1.533.347 3.147.747 4.79.609 3.66-.31 4.75-2.833 7.313-4.275 4.623-2.616 14.661-1.895 16.692-5.326 1.19-2.01-1.547-4.073-4.53-5.445-11.41-5.25-27.739-6.117-42.68-5.306-14.94.81-29.623 3.042-44.63 3.053-18.709 0-36.785-3.427-55.31-4.836-12.832-.972-26.835-.852-38.867 2.018-13.044 3.098-15.919 10.06-27.698 13.6zM16 298.487c5.207 3.088 11.53 1.21 17.43 1.427.807.03 1.663.12 2.31.653.647.531.967 1.4 1.41 2.141 1.651 2.755 5.036 3.642 7.993 3.173 2.957-.47 5.672-2.014 8.466-3.195 4.835-2.035 10.344-2.963 15.101-.733.408.257.885.385 1.369.367 1.041-.184 1.354-1.662 2.083-2.505 1.317-1.526 4.18-1.1 4.757-3.121.339-1.177-.442-2.384-1.29-3.187-3.251-3.077-7.908-3.583-12.167-3.11-4.26.473-8.444 1.757-12.725 1.757-5.33 0-10.482-2.007-15.763-2.832-3.66-.572-7.652-.498-11.081 1.181-3.716 1.834-4.534 5.912-7.893 7.984z" fill="#536DFE" opacity=".1"/>
        <rect fill="#535461" x="72" y="16" width="200" height="266" rx="3"/>
        <path fill="#F6F7F9" d="M83 41h179v215H83z"/>
        <circle fill="#F6F7F9" cx="171.5" cy="28.5" r="2.5"/>
        <circle fill="#F6F7F9" cx="171.5" cy="268.5" r="7.5"/>
        <path d="M82.022 41.323h179.694v10.571H82.022z" opacity=".2" fill="#536DFE"/>
        <circle fill="#F6F7F9" cx="88.5" cy="46.5" r="2.5"/>
        <circle fill="#F6F7F9" cx="94.5" cy="46.5" r="2.5"/>
        <circle fill="#F6F7F9" cx="99.5" cy="46.5" r="2.5"/>
        <path fill="#DCE0ED" d="M88 104h167v1H88zM88 117h167v1H88zM88 130h167v1H88zM88 143h167v1H88zM88 156h167v1H88z"/>
        <path d="M254.803 156.91H87.339v-25.688l15.358 7.62 15.895 2.172 13.947-4.234 16.826-13.136 8.463-4.92 6.188-1.2 5.919.319 9.733 4.84 13.235 8.487 10.386 1.343 8.232-2.858 17.456-14.389 8.91-3.199 9.324 1.452 7.592 4.413z" opacity=".2" fill="#536DFE"/>
        <path d="M117.074 140.999c-15.021 0-28.9-9.274-29.074-9.394l.415-.622c.216.146 21.577 14.413 39.729 7.267 6.618-2.622 11.33-6.66 15.889-10.581 4.76-4.094 9.252-7.96 15.38-9.637 7.027-1.922 14.706-.184 20.542 4.659 4.99 4.139 14.924 10.783 25.42 8.798 5.349-1.015 9.856-4.959 14.63-9.135 9.153-8.008 18.62-16.289 34.995-4.408l-.434.606c-15.9-11.536-25.138-3.45-34.074 4.367-4.853 4.244-9.434 8.24-14.98 9.304-10.796 2.045-20.939-4.734-26.029-8.955-5.65-4.686-13.077-6.367-19.877-4.513-5.965 1.633-10.387 5.445-15.095 9.483-4.604 3.963-9.363 8.056-16.097 10.708a30.795 30.795 0 0 1-11.34 2.053z" fill="#536DFE"/>
        <circle fill="#536DFE" cx="168" cy="118" r="4"/>
        <path d="M222.143 63.13h-52.286a.846.846 0 0 0-.85.843v35.132c0 .345.214.656.537.783a.853.853 0 0 0 .93-.206l9.062-9.602a.848.848 0 0 1 .618-.266h41.99c.468 0 .849-.378.849-.844V63.966a.846.846 0 0 0-.85-.837z" opacity=".2" fill="#536DFE"/>
        <path fill="#F6F7F9" d="M181 69h30v4h-30zM181 77h8v4h-8z"/>
        <path d="M102.149 183.116h8.589v3.636h-8.589zM102.149 190.236h8.589v3.636h-8.589zM102.149 197.356h8.589v3.636h-8.589zM102.149 205.116h8.589v3.636h-8.589zM102.149 212.236h8.589v3.636h-8.589zM102.149 219.356h8.589v3.636h-8.589zM102.149 227.116h8.589v3.636h-8.589zM102.149 234.236h8.589v3.636h-8.589zM117.278 237.236h8.589v3.636h-8.589zM131.149 237.236h8.589v3.636h-8.589zM146.018 237.236H154v3.636h-7.982zM160.278 237.236h8.589v3.636h-8.589zM175.149 237.236h8.589v3.636h-8.589zM189.018 237.236H197v3.636h-7.982zM203.278 237.236h8.589v3.636h-8.589zM218.149 237.236h8.589v3.636h-8.589zM232.02 237.236h8.589v3.636h-8.589z" opacity=".2" fill="#536DFE"/>
        <path fill="#F6F7F9" d="M199 77h12v4h-12z"/>
        <path fill="#536DFE" d="M118 211h8v23h-8zM132 200h8v34h-8zM146 191h8v43h-8zM161 196h8v38h-8zM175 187h8v47h-8z"/>
        <path d="M189.018 205.119H197v28.751h-7.982zM203.278 205.119h8.589v28.751h-8.589zM218.149 205.119h8.589v28.751h-8.589zM232.02 205.119h8.589v28.751h-8.589z" opacity=".2" fill="#536DFE"/>
        <path d="M368.312 101.08c-8.877-5.097-12.23-6.361-12.249-6.369l-.18-.13a7.406 7.406 0 0 1-2.24-2.822v-.608.06c.142-2.7 2.065-5.156 3.891-7.3l4.665-5.48a5.319 5.319 0 0 0 1.202-1.902 4.24 4.24 0 0 0 .127-1.167v-.477c-.022-1.36-.063-2.725-.112-4.101-.045-1.19-.35-2.688-1.542-2.934-.62-.127-1.438.097-1.767-.436a1.013 1.013 0 0 1-.078-.705.298.298 0 0 0 0 .056v-.067c.232-.918.38-1.855.444-2.8.024-.48-.042-.96-.194-1.417-.69-1.976-3.066-2.785-5.168-3.158-2.103-.372-4.455-.693-5.774-2.333-.407-.507-.683-1.119-1.146-1.577a4.555 4.555 0 0 0-2.147-1.06 12.152 12.152 0 0 0-7.813.68c-1.015.45-2.035 1.062-3.148.995-1.113-.067-2.147-.869-3.29-1.063-1.845-.313-3.611 1.04-4.518 2.64a6.438 6.438 0 0 0-.837 3.117v.182a4.54 4.54 0 0 0 1.199 3.18c.795.824 1.983 1.391 2.311 2.476.135.44.101.917.22 1.364 0 .056.034.112.053.164l-.06.079a13.798 13.798 0 0 0-2.927 8.53 14.133 14.133 0 0 0 9.944 13.399v.417c0 1.693-.482 3.42-1.93 4.69l-12.57 5.048s-7.578-.898-10.311 10.16a18.656 18.656 0 0 0-.47 5.61c.1 1.667-.131 4.605-2.073 8.404-3.111 6.077-2.401 20.028 3.954 21.41 6.002 1.306 8.35.747 8.59.698v.242c-.098 2.61-1.05 25.2-4.512 27.932-.956.746-.776 1.268 0 1.61 0 0 0 .146-.022.407-.105 1.652-.639 7.941-2.954 11.52-2.685 4.142-2.405 28.043-2.405 28.043l-1.804 14.104s1.12 8.702 0 10.223c-1.008 1.353-2.352 33.553-2.614 40.529h-.12a3.395 3.395 0 0 0-2.714 1.651c-1.494 2.409-6.685 6.857-6.685 6.857-1.12 1.599-5.299 3.128-7.506 3.85-.296.096-.58.22-.851.374a4.477 4.477 0 0 0-1.894 1.99 2.152 2.152 0 0 0-.205 1.663c.568 1.38 12.294 2.345 15.259.966 2.334-1.089 11.576-2.517 15.412-3.076a3.168 3.168 0 0 0 2.744-2.736 1.806 1.806 0 0 0-.373-1.372c-.747-.91-1.12-3.39-1.28-5.007.311-.126.602-.298.862-.511a36.677 36.677 0 0 1 2.117-14.779c2.827-7.456 3.675-21.276 2.988-30.254 0 0 8.619-37.02 15.4-40.477.105.13 3.395 4.351 3.813 17.403.426 13.262 5.228 21.963 5.228 21.963s-2.12 22.518 0 30.944l-2.774 13.295c-.202-.175-.333-.31-.333-.31s.083.373.198.962l-.06.28.12.03c.314 1.662.78 4.56.59 6.26-.112.965-.373 2.292-.568 3.593-.29 2.047-.373 4.03.706 4.474 1.767.708 12.152 1.678 13.918-.6a3.269 3.269 0 0 0 .516-3.415 3.485 3.485 0 0 0-.516-.869s-2.756-4.5-1.979-7.672a2.316 2.316 0 0 0-.329-1.824c.12-1.558.747-8.764 2.38-14.886 1.766-6.647 5.496-21.221 2.752-30.806a21.429 21.429 0 0 0-.351-1.119 41.235 41.235 0 0 1-1.554-16.161 32.866 32.866 0 0 1 0-14.093c1.695-7.736 2.88-15.334 2.88-15.334s.937-10.219.119-16.486l-.056-.402.448-.101s-2.401-10.637-3.25-17.403c-.2-1.6-.462-3.624-.746-5.786a14.064 14.064 0 0 0 2.304-.57c7.603-2.637 9.993-26.393 9.993-26.393v-7.53s2.555-11.536-6.348-16.647zm-56.838 183.452c-.235-.12-.373-.198-.373-.198l.373.198z" fill="url(#fmzi36ipoa)"/>
        <path d="M363.255 237.526c3.316 9.5-.553 24.92-2.35 31.803-1.796 6.883-2.35 15.15-2.35 15.15-7.045 1.1-12.156-.28-12.156-.28l2.9-14.17c-2.074-8.397 0-30.84 0-30.84s-4.697-8.673-5.112-21.892c-.408-13.013-3.626-17.215-3.742-17.346-6.63 3.442-15.06 40.345-15.06 40.345.692 8.95-.139 22.716-2.9 30.151a37.246 37.246 0 0 0-2.073 14.733c-.966.813-2.31.95-3.76.72-3.934-.653-8.652-4.039-8.652-4.039s1.497-40.2 2.62-41.717c1.122-1.518 0-10.191 0-10.191l1.792-14.043s-.274-23.823 2.35-27.965c2.267-3.569 2.787-9.837 2.888-11.481 0-.261.023-.407.023-.407l3.996-4.773s38.69-2.89 41.59 0c.715.713 1.153 2.323 1.415 4.356.797 6.245-.116 16.432-.116 16.432s-1.16 7.573-2.818 15.288a33.292 33.292 0 0 0 0 14.043 41.82 41.82 0 0 0 1.515 16.123z" fill="#65617D"/>
        <path d="M361.253 297.614c-1.69 2.216-11.619 1.274-13.31.586-1.03-.426-.95-2.354-.672-4.345.175-1.266.435-2.547.541-3.497.27-2.42-.812-7.325-.812-7.325s2.232 2.35 2.77 0c.237-1.027 1.068-1.554 1.928-1.82a5.092 5.092 0 0 1 3.508.218c1.752.757 4.683 2.373 4.156 4.556-.732 3.086 1.891 7.464 1.891 7.464.204.257.369.54.49.844a3.218 3.218 0 0 1-.49 3.32z" fill="#A27772"/>
        <path d="M361.248 297.653c-1.7 2.154-11.688 1.238-13.389.57-1.037-.414-.956-2.289-.677-4.223 1.071.481 2.897.884 5.936.612.711-.064 1.425-.085 2.139-.064 2.162.096 4.328.054 6.484-.124a3.043 3.043 0 0 1-.493 3.23zM325.809 240.14c.698 8.98-.14 22.793-2.925 30.254a37.195 37.195 0 0 0-2.091 14.783c-.974.816-2.329.954-3.793.722.842-5.837 4.423-30.935 6.737-50.769 2.597-22.588 14.825-38.13 14.825-38.13l2.438 2.66c-6.695 3.45-15.191 40.48-15.191 40.48z" fill="#000" opacity=".1"/>
        <path d="m357 95.696-1.678 8.337L347.105 118l-10.133-4.377s-13.769-14.592-5.117-16.677a7.546 7.546 0 0 0 2.873-1.295c1.7-1.295 2.233-3.18 2.233-5.025 0-3.045-1.407-5.98-1.407-5.98L353.28 79a28.93 28.93 0 0 0-1.273 7.264c-.134 4.893 1.66 7.287 3.13 8.435.55.453 1.184.792 1.864.997z" fill="#FBBEBE"/>
        <path d="M353 80a27.222 27.222 0 0 0-1.292 7.087c-.328.379-.677.74-1.047 1.08-3.786 3.515-9.252 4.728-14.232 3.157 0-2.97-1.429-5.835-1.429-5.835L353 80z" fill="#000" opacity=".1"/>
        <path d="M355 77.004A14 14 0 1 1 341.015 63 13.94 13.94 0 0 1 355 77.004z" fill="#FBBEBE"/>
        <path d="m357 95.967-1.678 8.235L347.105 118l-10.133-4.324S323.203 99.26 331.855 97.2a7.59 7.59 0 0 0 2.873-1.279c-1.563 4.294 4.89 13.225 4.89 13.225.744 1.116 2.475.41 2.475.41 4.153-.625 11.807-12.572 13.054-14.557.548.44 1.178.769 1.853.967zM365 175.927c-2.45.584-16.018 3.735-21.164 2.947-5.659-.87-16.67-1.446-16.67-1.446s-7.008.392-9.166-.635c0-.274.022-.427.022-.427l3.995-5.016s38.67-3.037 41.57 0c.714.74 1.151 2.434 1.413 4.577z" fill="#000" opacity=".1"/>
        <path d="M339.962 109.38s-7.233-10.017-4.508-13.909l-12.22 5.005s-7.356-.89-10.026 10.077a18.955 18.955 0 0 0-.456 5.565c.096 1.655-.127 4.567-2.013 8.333-3.019 6.03-2.332 19.864 3.84 21.237 6.17 1.373 8.362.683 8.362.683s-.821 25.073-4.386 27.949c-3.564 2.875 9.087 2.192 9.087 2.192s10.931.55 16.553 1.37c5.622.82 21.388-2.876 21.388-2.876s-2.332-10.552-3.152-17.263c-.82-6.712-2.744-21.007-2.744-21.007l13.987-18.922s2.466-11.439-6.171-16.507C358.866 96.24 355.621 95 355.621 95s-8.667 14.099-13.19 14.792c0 0-1.719.69-2.469-.411z" fill="#7C7CDD"/>
        <path d="M323.381 114s-.14 4.534.698 6.324C324.917 122.113 328 132 328 132h-7s3.792-3.984 3.5-5.907c-.292-1.923-1.119-12.093-1.119-12.093z" fill="#000" opacity=".1"/>
        <path d="M344.153 148s-15.346-3.67-16.776-6.78c-1.43-3.11-5.377-10.09-5.377-10.09l1.618-2.13 7.466 5.715s8.892 6.913 13.061 7.592c4.17.679.008 5.693.008 5.693z" fill="#FBBEBE"/>
        <path d="M344.153 148s-15.346-3.67-16.776-6.78c-1.43-3.11-5.377-10.09-5.377-10.09l1.618-2.13 7.466 5.715s8.892 6.913 13.061 7.592c4.17.679.008 5.693.008 5.693z" fill="#000" opacity=".05"/>
        <path d="M357 130.07v8.294h-1.305a37.282 37.282 0 0 0-18.402 4.874l-2.44 1.387-.657.375-4.196-9.665 3.925-3.6h.202c.96.094 5.112.45 6.872-.157 1.67-.581 3.745-2.422 8.667-1.125 2.427.634 4.497 3.416 6.85 2.546l.484-2.928z" fill="#FBBEBE"/>
        <path d="m370.222 115.342 2.778 3.085v7.485s-2.36 23.612-9.855 26.222c-7.495 2.61-20.873-1.513-20.873-1.513s-3.458-9.06-1.842-9.607c1.617-.547 14.284-3.86 14.284-3.86s-.177-13.852 2.597-17.972c0 0-1.804-12.901 4.443-13.176 6.247-.275 8.468 9.336 8.468 9.336z" fill="#000" opacity=".1"/>
        <path d="m371.224 115.342 2.776 3.085v7.485s-2.352 23.612-9.866 26.222c-7.514 2.61-20.866-1.513-20.866-1.513s-3.453-9.06-1.838-9.607c1.616-.547 14.277-3.86 14.277-3.86s-.18-13.852 2.596-17.972c0 0-1.803-12.901 4.441-13.176 6.244-.275 8.48 9.336 8.48 9.336z" fill="#7C7CDD"/>
        <path d="M351.16 82.834c.055-.898.073-1.848-.311-2.657-.384-.81-1.285-1.456-2.164-1.25-1.168.274-1.67 1.793-2.815 2.16-.964.306-2.016-.37-2.474-1.28-.458-.909-.473-1.959-.477-2.957v-3.418c0-1.242-.04-2.588-.805-3.556-.95-1.216-3.184-1.745-4.676-1.697a3.958 3.958 0 0 0-2.67 1.08c-.798.676-1.721 1.179-2.81.998A2.427 2.427 0 0 1 330 68.564v-.045a13.904 13.904 0 0 1 24.413 4.403A13.927 13.927 0 0 1 350.683 87c.237-1.378.396-2.77.476-4.166z" fill="#000" opacity=".1"/>
        <path d="M332.578 70.407a2.443 2.443 0 0 1-1.968-1.704c-.115-.442-.085-.914-.215-1.355-.32-1.077-1.486-1.638-2.228-2.455-1.545-1.641-1.445-4.337-.35-6.313.885-1.59 2.6-2.93 4.386-2.621 1.114.193 2.069.984 3.194 1.054 1.125.07 2.068-.538 3.056-.988a11.511 11.511 0 0 1 7.579-.672c.777.156 1.498.52 2.087 1.051.398.502.77 1.024 1.114 1.563 1.281 1.63 3.568 1.95 5.607 2.318 2.039.367 4.341 1.173 5.013 3.134.442 1.3 0 2.71-.241 4.062-.086.276-.068.573.052.836.32.527 1.114.308 1.715.434 1.159.242 1.456 1.73 1.486 2.912.05 1.351.086 2.703.111 4.055a3.984 3.984 0 0 1-1.288 3.39l-4.527 5.44c-2.009 2.414-4.14 5.225-3.736 8.337-.95.427-2.08-.398-2.391-1.393-.312-.995-.06-2.065.148-3.086.367-1.765.606-3.555.717-5.354.056-.907.074-1.857-.312-2.67-.386-.814-1.292-1.486-2.176-1.26-1.173.276-1.678 1.802-2.83 2.17-.965.308-2.027-.372-2.487-1.285-.46-.914-.476-1.969-.48-2.971v-3.439c0-1.244-.04-2.6-.809-3.572-.954-1.222-3.2-1.753-4.701-1.705-1 .013-1.957.4-2.685 1.085-.817.68-1.745 1.18-2.84 1.002z" fill="#7C5C5C"/>
        <path d="m335 113 4.262 18s3.362-.019-4.262-18zM350 110s-5.714 9.305-3.483 18.921l1.064.079s-1.902-4.454 2.419-19zM354 162.559s6.526-2.607 7 3.441c0 0-1.232-4.145-7-3.441zM333.878 132s-1.38 9.511 1.122 13.316c0 0-5.058 2.038-12.158 1.63L322 132h11.878z" fill="#000" opacity=".1"/>
        <path d="m335 144.633-.676.367-4.324-9.473 4.045-3.527h.207c-.064.456-1.19 8.613.748 12.633z" fill="#000" opacity=".1"/>
        <path d="M333.877 132s-1.381 9.51 1.123 13.316c0 0-5.06 2.038-12.164 1.63L318 132h15.877z" fill="#7C7CDD"/>
        <path d="M321.977 292.53a3.131 3.131 0 0 1-2.701 2.73c-3.767.56-12.875 1.987-15.173 3.07-2.919 1.379-14.464.415-15.021-.963a2.173 2.173 0 0 1 .2-1.658 4.464 4.464 0 0 1 1.883-1.991c.265-.152.545-.277.836-.374 2.173-.72 6.279-2.24 7.39-3.847 0 0 5.12-4.441 6.577-6.843a3.352 3.352 0 0 1 2.674-1.65c1.22-.057 2.577.552 3.13 3.2 0 0 6.675 3.777 8.48.464 0 0 .278 5.087 1.386 6.476.295.398.417.898.339 1.386z" fill="#A27772"/>
        <path d="M321.978 292.405a3.163 3.163 0 0 1-2.701 2.783c-3.767.571-12.875 2.026-15.173 3.13-2.92 1.405-14.465.422-15.022-.983a2.252 2.252 0 0 1 .2-1.69 4.515 4.515 0 0 1 1.883-2.03c1.883 1.265 6.06 2.498 15.252 1.048 8.765-1.382 13.105-2.738 15.222-3.663.293.404.415.91.339 1.405z" fill="#000" opacity=".1"/>
        <g opacity=".1" fill="#000">
            <path d="M359.503 67.195v-.067c.195-1.03.485-2.095.419-3.121-.087.842-.227 1.679-.42 2.504-.05.225-.05.46 0 .684zM351.583 80.055c.214.495.327 1.03.334 1.57a4.736 4.736 0 0 0-.334-2.188c-.367-.822-1.275-1.47-2.15-1.261-1.16.275-1.66 1.804-2.798 2.173-.96.309-2.006-.372-2.465-1.288-.46-.915-.467-1.972-.47-2.976v-3.446c0-1.246-.04-2.605-.801-3.58-.944-1.224-3.17-1.756-4.65-1.707-.99.011-1.937.4-2.657 1.086-.797.685-1.712 1.187-2.795 1.009a2.427 2.427 0 0 1-1.947-1.708c-.114-.443-.085-.916-.213-1.359-.32-1.079-1.47-1.64-2.204-2.46a4.497 4.497 0 0 1-1.143-2.905 4.72 4.72 0 0 0 1.143 3.524c.764.818 1.899 1.384 2.204 2.463.128.439.099.911.213 1.354a2.427 2.427 0 0 0 1.947 1.708c1.102.179 1.998-.324 2.795-1.008a3.911 3.911 0 0 1 2.656-1.087c1.47-.048 3.707.488 4.65 1.708.761.983.798 2.333.802 3.58v3.445c0 1.02 0 2.08.47 2.977.47.897 1.506 1.596 2.465 1.288 1.138-.373 1.638-1.898 2.799-2.174.885-.204 1.77.44 2.149 1.262zM362.732 76.27a5.284 5.284 0 0 1-1.154 1.89 4784.839 4784.839 0 0 1-4.478 5.452c-1.884 2.296-3.882 4.953-3.736 7.881.136-2.686 1.984-5.131 3.736-7.263l4.478-5.448a5.333 5.333 0 0 0 1.154-1.894c.11-.487.15-.989.117-1.488a3.623 3.623 0 0 1-.117.87zM351.054 90.57a3.301 3.301 0 0 1-.132-.744c-.039.456.006.915.132 1.354.308.998 1.429 1.82 2.37 1.392a6.66 6.66 0 0 1-.048-.603c-.948.395-2.036-.416-2.322-1.399z"/>
        </g>
        <path d="M305 284s1.515 2.075 7 .247M349 284s4.424 5.357 10 1.754M362 222s-2.904 1.714-2.996 2.695c-.092.98 1.498-.714 1.498-.714L362 222zM363 237a7.164 7.164 0 0 1-4.117 1.539c-2.498.105-2.29 3.223-.66 2.285C359.856 239.886 363 237 363 237zM364 239s-1.656 7.214-3 5.822" fill="#000" opacity=".1"/>
        <path d="M50.509 273s1.998 2.727-.925 6.836c-2.923 4.11-5.333 7.597-4.368 10.164 0 0 4.408-7.65 8.008-7.756 3.6-.106 1.234-4.645-2.715-9.244z" fill="#536DFE"/>
        <path d="M50.45 273c.176.262.315.55.412.854 3.542 4.289 5.43 8.293 2.025 8.396-3.17.09-6.996 5.94-7.887 7.416.03.113.066.225.107.334 0 0 4.459-7.644 8.1-7.75 3.641-.107 1.237-4.654-2.758-9.25z" fill="#000" opacity=".1"/>
        <path d="M54.236 277.521c0 .817-.104 1.479-.234 1.479s-.238-.662-.238-1.479c0-.817.134-.43.264-.43s.208-.38.208.43z" fill="#FFD037"/>
        <path d="M55.526 278.503c-.78.352-1.462.565-1.522.477-.06-.087.527-.448 1.308-.8.78-.352.47-.096.53 0 .06.096.464-.029-.316.323z" fill="#FFD037"/>
        <path d="M40.49 273s-1.998 2.727.925 6.836c2.924 4.11 5.334 7.597 4.369 10.164 0 0-4.409-7.65-8.009-7.756-3.6-.106-1.23-4.645 2.716-9.244z" fill="#536DFE"/>
        <path d="M40.55 273c-.175.263-.314.55-.412.854-3.542 4.289-5.431 8.293-2.025 8.396 3.174.09 6.996 5.94 7.887 7.416a2.715 2.715 0 0 1-.107.334s-4.459-7.644-8.1-7.75c-3.642-.107-1.234-4.654 2.757-9.25z" fill="#000" opacity=".1"/>
        <path d="M36.764 277.521c0 .817.104 1.479.234 1.479s.238-.662.238-1.479c0-.817-.134-.43-.264-.43s-.208-.38-.208.43z" fill="#FFD037"/>
        <path d="M35.476 278.503c.781.352 1.46.565 1.52.477.06-.087-.528-.448-1.309-.8-.78-.352-.471-.096-.531 0-.06.096-.46-.029.32.323z" fill="#FFD037"/>
        <path d="M37 290.145s5.643-.178 7.348-1.429c1.705-1.25 8.678-2.74 9.1-.735.423 2.005 8.48 9.964 2.11 10.017-6.371.053-14.803-1.023-16.5-2.092-1.698-1.069-2.058-5.76-2.058-5.76z" fill="#A8A8A8"/>
        <path d="M55.672 297.296c-6.372.054-14.806-1.043-16.504-2.131-1.293-.826-1.808-3.795-1.98-5.165H37s.367 4.783 2.054 5.867c1.687 1.085 10.132 2.185 16.504 2.131 1.838 0 2.477-.702 2.44-1.722-.253.622-.955 1.008-2.326 1.02z" fill="#000" opacity=".2"/>
    </g>
</svg>
