<svg width="19" height="22" viewBox="0 0 19 22" xmlns="http://www.w3.org/2000/svg">
    <path d="M12.188 19.93A3.45 3.45 0 0 1 9.036 22a3.45 3.45 0 0 1-3.152-2.07zM9.101 0c1.006 0 1.824.825 1.824 1.84v1.028a6.51 6.51 0 0 1 4.57 6.22c0 1.988.196 4.772 1.125 6.749.506 1.076 1.011 1.432 1.078 1.475a.655.655 0 0 1 .358.744.681.681 0 0 1-.671.526H.687a.681.681 0 0 1-.67-.526.655.655 0 0 1 .357-.744c.067-.043.572-.4 1.078-1.475.929-1.977 1.124-4.761 1.124-6.749a6.51 6.51 0 0 1 4.549-6.213V1.839C7.125.825 7.943 0 8.949 0z" fill="#FFF" fill-rule="nonzero"/>
</svg>
