<svg xmlns="http://www.w3.org/2000/svg" width="22" height="22" viewBox="0 0 22 22">
    <path fill="#D8D8D8" d="M15.728 0c.356 0 .644.289.644.645v20.71c0 .356-.288.645-.644.645H.645C.289 22 0 21.711 0 21.355V.645C0 .289.289 0 .645 0zm5.837 16.68l.397 1.094c.057.16.05.335-.02.488l-1.544 3.362c-.105.23-.334.376-.586.376-.251 0-.48-.147-.585-.376l-1.543-3.362c-.071-.153-.078-.329-.02-.488l.395-1.094h3.506zm-8.655.085H8.816c-.356 0-.644.289-.644.645 0 .356.288.645.644.645h4.094c.356 0 .644-.29.644-.645 0-.356-.289-.645-.644-.645zM22 5.367v9.38c0 .355-.289.644-.645.644H18.27c-.356 0-.644-.289-.644-.645V5.367H22zM6.767 11.706c-.252-.252-.66-.252-.912 0l-1.502 1.502-.467-.467c-.251-.252-.66-.252-.911 0-.252.252-.252.66 0 .912l.922.922c.121.121.285.189.456.189.171 0 .335-.068.456-.189l1.958-1.957c.251-.252.251-.66 0-.912zm6.143 1H8.816c-.356 0-.644.288-.644.644 0 .356.288.644.644.644h4.094c.356 0 .644-.288.644-.644 0-.356-.289-.645-.644-.645zm-6.143-4.91c-.252-.252-.66-.252-.912 0L4.353 9.298l-.467-.467c-.251-.252-.66-.252-.911 0-.252.251-.252.66 0 .911l.922.923c.121.12.285.189.456.189.171 0 .335-.068.456-.19l1.958-1.957c.251-.252.251-.66 0-.911zm6.143.999H8.816c-.356 0-.644.289-.644.645 0 .355.288.644.644.644h4.094c.356 0 .644-.289.644-.644 0-.356-.289-.645-.644-.645zm-6.143-4.91c-.252-.251-.66-.251-.912 0L4.353 5.387l-.467-.467c-.251-.251-.66-.251-.911 0-.252.252-.252.66 0 .912l.922.923c.121.12.285.188.456.188.171 0 .335-.068.456-.188l1.958-1.958c.251-.252.251-.66 0-.912zm6.143 1H8.816c-.356 0-.644.288-.644.644 0 .356.288.645.644.645h4.094c.356 0 .644-.289.644-.645 0-.356-.289-.644-.644-.644zM19.812 0C21.02 0 22 .981 22 2.188v1.89h-4.375v-1.89C17.625.98 18.606 0 19.812 0z"/>
</svg>
