<svg xmlns="http://www.w3.org/2000/svg" width="17" height="16" viewBox="0 0 17 16">
    <g fill="#FFF">
        <path d="M5.525 0H1.85C.83 0 0 .83 0 1.85v3.675c0 1.02.83 1.85 1.85 1.85h3.675c1.02 0 1.85-.83 1.85-1.85V1.85C7.375.83 6.545 0 5.525 0zM14.125 0H10.5C9.466 0 8.625.841 8.625 1.875V5.5c0 1.034.841 1.875 1.875 1.875h3.625C15.159 7.375 16 6.534 16 5.5V1.875C16 .841 15.159 0 14.125 0zM5.525 8.625H1.85c-1.02 0-1.85.83-1.85 1.85v3.675C0 15.17.83 16 1.85 16h3.675c1.02 0 1.85-.83 1.85-1.85v-3.675c0-1.02-.83-1.85-1.85-1.85zM14.125 8.625H10.5c-1.034 0-1.875.841-1.875 1.875v3.625c0 1.034.841 1.875 1.875 1.875h3.625C15.159 16 16 15.159 16 14.125V10.5c0-1.034-.841-1.875-1.875-1.875z" transform="translate(.5)"/>
    </g>
</svg>
